<svg width="76" height="48" viewBox="0 0 76 48" fill="none" xmlns="http://www.w3.org/2000/svg">
<path d="M32.5 29H29C28.45 29 28 28.55 28 28V18C28 17.45 28.45 17 29 17H32.5C33.05 17 33.5 17.45 33.5 18V23V28C33.5 28.55 33.05 29 32.5 29ZM39.75 11H36.25C35.7 11 35.25 11.45 35.25 12V28C35.25 28.55 35.7 29 36.25 29H39.75C40.3 29 40.75 28.55 40.75 28V12C40.75 11.45 40.3 11 39.75 11ZM47 19H43.5C42.95 19 42.5 19.45 42.5 20V28C42.5 28.55 42.95 29 43.5 29H47C47.55 29 48 28.55 48 28V20C48 19.45 47.55 19 47 19Z" fill="#0D0D0D"/>
<path d="M9.42614 38H8.19318C8.12027 37.6454 7.99266 37.3338 7.81037 37.0653C7.63139 36.7969 7.41264 36.5715 7.15412 36.3892C6.89891 36.2036 6.61553 36.0644 6.30398 35.9716C5.99242 35.8788 5.66761 35.8324 5.32955 35.8324C4.71307 35.8324 4.15459 35.9882 3.65412 36.2997C3.15696 36.6113 2.76089 37.0703 2.46591 37.6768C2.17424 38.2834 2.02841 39.0275 2.02841 39.9091C2.02841 40.7907 2.17424 41.5348 2.46591 42.1413C2.76089 42.7479 3.15696 43.2069 3.65412 43.5185C4.15459 43.83 4.71307 43.9858 5.32955 43.9858C5.66761 43.9858 5.99242 43.9394 6.30398 43.8466C6.61553 43.7538 6.89891 43.6162 7.15412 43.4339C7.41264 43.2483 7.63139 43.0213 7.81037 42.7528C7.99266 42.4811 8.12027 42.1695 8.19318 41.8182H9.42614C9.33333 42.3385 9.1643 42.8042 8.91903 43.2152C8.67377 43.6262 8.36885 43.9759 8.00426 44.2642C7.63968 44.5492 7.23035 44.7663 6.77628 44.9155C6.32552 45.0646 5.84328 45.1392 5.32955 45.1392C4.46117 45.1392 3.68892 44.9271 3.01278 44.5028C2.33665 44.0786 1.80469 43.4754 1.4169 42.6932C1.02912 41.911 0.835227 40.983 0.835227 39.9091C0.835227 38.8352 1.02912 37.9072 1.4169 37.125C1.80469 36.3428 2.33665 35.7396 3.01278 35.3153C3.68892 34.8911 4.46117 34.679 5.32955 34.679C5.84328 34.679 6.32552 34.7536 6.77628 34.9027C7.23035 35.0518 7.63968 35.2706 8.00426 35.5589C8.36885 35.844 8.67377 36.192 8.91903 36.603C9.1643 37.0107 9.33333 37.4763 9.42614 38ZM11.2594 47.8636V37.3636H12.3929V38.5767H12.5321C12.6183 38.4441 12.7376 38.2751 12.8901 38.0696C13.0459 37.8608 13.2679 37.6752 13.5563 37.5128C13.848 37.3471 14.2424 37.2642 14.7395 37.2642C15.3825 37.2642 15.9493 37.425 16.4398 37.7464C16.9303 38.0679 17.3132 38.5237 17.5882 39.1136C17.8633 39.7036 18.0009 40.3996 18.0009 41.2017C18.0009 42.0104 17.8633 42.7114 17.5882 43.3047C17.3132 43.8946 16.932 44.352 16.4448 44.6768C15.9576 44.9983 15.3958 45.1591 14.7594 45.1591C14.2689 45.1591 13.8761 45.0779 13.5811 44.9155C13.2862 44.7498 13.0591 44.5625 12.9 44.3537C12.7409 44.1416 12.6183 43.9659 12.5321 43.8267H12.4327V47.8636H11.2594ZM12.4128 41.1818C12.4128 41.7585 12.4973 42.2673 12.6664 42.7081C12.8354 43.1456 13.0823 43.4886 13.4071 43.7372C13.7319 43.9825 14.1297 44.1051 14.6003 44.1051C15.0909 44.1051 15.5002 43.9759 15.8283 43.7173C16.1597 43.4555 16.4083 43.1042 16.574 42.6634C16.7431 42.2192 16.8276 41.7254 16.8276 41.1818C16.8276 40.6449 16.7447 40.161 16.579 39.7301C16.4166 39.2959 16.1697 38.9529 15.8382 38.701C15.5101 38.4458 15.0975 38.3182 14.6003 38.3182C14.123 38.3182 13.722 38.4392 13.3972 38.6811C13.0724 38.9197 12.8271 39.2545 12.6614 39.6854C12.4957 40.1129 12.4128 40.6117 12.4128 41.1818ZM22.0378 45.179C21.5539 45.179 21.1148 45.0878 20.7203 44.9055C20.3259 44.7199 20.0127 44.4531 19.7807 44.1051C19.5487 43.7538 19.4327 43.3295 19.4327 42.8324C19.4327 42.3949 19.5189 42.0402 19.6912 41.7685C19.8636 41.4934 20.0939 41.2779 20.3823 41.1222C20.6706 40.9664 20.9888 40.8504 21.3368 40.7741C21.6882 40.6946 22.0411 40.6316 22.3958 40.5852C22.8598 40.5256 23.236 40.4808 23.5243 40.451C23.816 40.4179 24.0281 40.3632 24.1607 40.2869C24.2966 40.2107 24.3645 40.0781 24.3645 39.8892V39.8494C24.3645 39.3589 24.2303 38.9777 23.9618 38.706C23.6967 38.4342 23.294 38.2983 22.7537 38.2983C22.1936 38.2983 21.7544 38.4209 21.4363 38.6662C21.1181 38.9115 20.8944 39.1733 20.7651 39.4517L19.6515 39.054C19.8503 38.59 20.1155 38.2287 20.4469 37.9702C20.7817 37.7083 21.1462 37.526 21.5407 37.4233C21.9384 37.3172 22.3295 37.2642 22.714 37.2642C22.9592 37.2642 23.2409 37.294 23.5591 37.3537C23.8806 37.41 24.1905 37.5277 24.4888 37.7067C24.7904 37.8857 25.0407 38.1558 25.2395 38.517C25.4384 38.8783 25.5378 39.3622 25.5378 39.9688V45H24.3645V43.9659H24.3049C24.2253 44.1316 24.0927 44.3089 23.9071 44.4979C23.7215 44.6868 23.4746 44.8475 23.1664 44.9801C22.8581 45.1127 22.4819 45.179 22.0378 45.179ZM22.2168 44.125C22.6808 44.125 23.0719 44.0339 23.3901 43.8516C23.7116 43.6693 23.9535 43.4339 24.1159 43.1456C24.2817 42.8572 24.3645 42.554 24.3645 42.2358V41.1619C24.3148 41.2216 24.2054 41.2763 24.0364 41.326C23.8707 41.3724 23.6784 41.4138 23.4597 41.4503C23.2443 41.4834 23.0338 41.5133 22.8283 41.5398C22.6261 41.563 22.4621 41.5829 22.3361 41.5994C22.0312 41.6392 21.7462 41.7038 21.481 41.7933C21.2192 41.8795 21.007 42.0104 20.8446 42.1861C20.6855 42.3584 20.606 42.5937 20.606 42.892C20.606 43.2997 20.7568 43.608 21.0584 43.8168C21.3633 44.0223 21.7495 44.125 22.2168 44.125ZM27.6793 45V37.3636H30.8015C31.6235 37.3636 32.2764 37.5492 32.7603 37.9205C33.2442 38.2917 33.4862 38.7822 33.4862 39.392C33.4862 39.8561 33.3486 40.2157 33.0735 40.4709C32.7984 40.7228 32.4454 40.8935 32.0146 40.983C32.2963 41.0227 32.5697 41.1222 32.8349 41.2812C33.1033 41.4403 33.3254 41.6591 33.5011 41.9375C33.6767 42.2126 33.7646 42.5507 33.7646 42.9517C33.7646 43.3428 33.6651 43.6925 33.4663 44.0007C33.2674 44.3089 32.9824 44.5526 32.6112 44.7315C32.2399 44.9105 31.7958 45 31.2788 45H27.6793ZM28.793 43.9261H31.2788C31.6831 43.9261 31.9996 43.83 32.2283 43.6378C32.457 43.4455 32.5714 43.1837 32.5714 42.8523C32.5714 42.4579 32.457 42.148 32.2283 41.9226C31.9996 41.6939 31.6831 41.5795 31.2788 41.5795H28.793V43.9261ZM28.793 40.5653H30.8015C31.1164 40.5653 31.3865 40.5223 31.6119 40.4361C31.8372 40.3466 32.0096 40.2206 32.1289 40.0582C32.2515 39.8925 32.3129 39.697 32.3129 39.4716C32.3129 39.1501 32.1786 38.8982 31.9102 38.7159C31.6417 38.5303 31.2721 38.4375 30.8015 38.4375H28.793V40.5653ZM40.6515 40.6449V41.7386H36.4355V40.6449H40.6515ZM36.714 37.3636V45H35.5407V37.3636H36.714ZM41.5463 37.3636V45H40.373V37.3636H41.5463ZM46.8908 45.1591C46.155 45.1591 45.5203 44.9967 44.9867 44.6719C44.4564 44.3438 44.0471 43.8864 43.7587 43.2997C43.4737 42.7098 43.3311 42.0237 43.3311 41.2415C43.3311 40.4593 43.4737 39.7699 43.7587 39.1733C44.0471 38.5734 44.4481 38.1061 44.9618 37.7713C45.4789 37.4332 46.0821 37.2642 46.7715 37.2642C47.1692 37.2642 47.562 37.3305 47.9498 37.4631C48.3375 37.5956 48.6905 37.8111 49.0087 38.1094C49.3269 38.4044 49.5804 38.7955 49.7694 39.2827C49.9583 39.7699 50.0527 40.3698 50.0527 41.0824V41.5795H44.1664V40.5653H48.8596C48.8596 40.1345 48.7734 39.75 48.601 39.4119C48.432 39.0739 48.19 38.8071 47.8752 38.6115C47.5636 38.416 47.1957 38.3182 46.7715 38.3182C46.3042 38.3182 45.8998 38.4342 45.5584 38.6662C45.2203 38.8949 44.9602 39.1932 44.7779 39.5611C44.5956 39.929 44.5044 40.3234 44.5044 40.7443V41.4205C44.5044 41.9972 44.6039 42.486 44.8027 42.8871C45.0049 43.2848 45.285 43.5881 45.6429 43.7969C46.0009 44.0024 46.4168 44.1051 46.8908 44.1051C47.199 44.1051 47.4775 44.062 47.726 43.9759C47.9779 43.8864 48.195 43.7538 48.3773 43.5781C48.5596 43.3991 48.7005 43.1771 48.7999 42.9119L49.9334 43.2301C49.8141 43.6146 49.6136 43.9527 49.3319 44.2443C49.0501 44.5327 48.7021 44.758 48.2878 44.9205C47.8735 45.0795 47.4078 45.1591 46.8908 45.1591ZM56.9483 40.6449V41.7386H52.7324V40.6449H56.9483ZM53.0108 37.3636V45H51.8375V37.3636H53.0108ZM57.8432 37.3636V45H56.6699V37.3636H57.8432ZM61.1593 43.2699L64.8382 37.3636H66.1905V45H65.0172V39.0938L61.3581 45H59.986V37.3636H61.1593V43.2699ZM71.5412 45.1591C70.8054 45.1591 70.1707 44.9967 69.6371 44.6719C69.1068 44.3438 68.6974 43.8864 68.4091 43.2997C68.1241 42.7098 67.9815 42.0237 67.9815 41.2415C67.9815 40.4593 68.1241 39.7699 68.4091 39.1733C68.6974 38.5734 69.0985 38.1061 69.6122 37.7713C70.1293 37.4332 70.7325 37.2642 71.4219 37.2642C71.8196 37.2642 72.2124 37.3305 72.6001 37.4631C72.9879 37.5956 73.3409 37.8111 73.6591 38.1094C73.9773 38.4044 74.2308 38.7955 74.4197 39.2827C74.6087 39.7699 74.7031 40.3698 74.7031 41.0824V41.5795H68.8168V40.5653H73.5099C73.5099 40.1345 73.4238 39.75 73.2514 39.4119C73.0824 39.0739 72.8404 38.8071 72.5256 38.6115C72.214 38.416 71.8461 38.3182 71.4219 38.3182C70.9545 38.3182 70.5502 38.4342 70.2088 38.6662C69.8707 38.8949 69.6106 39.1932 69.4283 39.5611C69.246 39.929 69.1548 40.3234 69.1548 40.7443V41.4205C69.1548 41.9972 69.2543 42.486 69.4531 42.8871C69.6553 43.2848 69.9354 43.5881 70.2933 43.7969C70.6513 44.0024 71.0672 44.1051 71.5412 44.1051C71.8494 44.1051 72.1278 44.062 72.3764 43.9759C72.6283 43.8864 72.8454 43.7538 73.0277 43.5781C73.21 43.3991 73.3509 43.1771 73.4503 42.9119L74.5838 43.2301C74.4645 43.6146 74.264 43.9527 73.9822 44.2443C73.7005 44.5327 73.3525 44.758 72.9382 44.9205C72.5239 45.0795 72.0582 45.1591 71.5412 45.1591Z" fill="#0D0D0D"/>
<rect x="42" width="30" height="19" rx="9.5" fill="#4D96FF"/>
<path d="M54.7015 5.27273V14H52.8564V7.02415H52.8052L50.8066 8.27699V6.64062L52.9672 5.27273H54.7015ZM59.9632 14.1193C59.361 14.1193 58.824 14.0085 58.3525 13.7869C57.8837 13.5653 57.5115 13.2599 57.236 12.8707C56.9604 12.4815 56.8169 12.0355 56.8056 11.5327H58.5953C58.6152 11.8707 58.7573 12.1449 59.0215 12.3551C59.2857 12.5653 59.5996 12.6705 59.9632 12.6705C60.253 12.6705 60.5087 12.6065 60.7303 12.4787C60.9547 12.348 61.1294 12.1676 61.2544 11.9375C61.3823 11.7045 61.4462 11.4375 61.4462 11.1364C61.4462 10.8295 61.3809 10.5597 61.2502 10.3267C61.1223 10.0937 60.9448 9.91193 60.7175 9.78125C60.4902 9.65057 60.2303 9.58381 59.9377 9.58097C59.682 9.58097 59.4334 9.63352 59.1919 9.73864C58.9533 9.84375 58.7672 9.98722 58.6337 10.169L56.9931 9.875L57.4064 5.27273H62.7417V6.78125H58.9277L58.7019 8.96733H58.753C58.9064 8.75142 59.138 8.57244 59.4476 8.4304C59.7573 8.28835 60.1039 8.21733 60.4874 8.21733C61.013 8.21733 61.4817 8.34091 61.8936 8.58807C62.3056 8.83523 62.6309 9.17472 62.8695 9.60653C63.1081 10.0355 63.226 10.5298 63.2232 11.0895C63.226 11.6776 63.0897 12.2003 62.8141 12.6577C62.5414 13.1122 62.1593 13.4702 61.6678 13.7315C61.1792 13.9901 60.611 14.1193 59.9632 14.1193Z" fill="white"/>
</svg>
