<svg width="76" height="48" viewBox="0 0 76 48" fill="none" xmlns="http://www.w3.org/2000/svg">
<path d="M38 14.25C39.2375 14.25 40.25 15.2625 40.25 16.5C40.25 17.7375 39.2375 18.75 38 18.75C36.7625 18.75 35.75 17.7375 35.75 16.5C35.75 15.2625 36.7625 14.25 38 14.25ZM38 25.5C41.0375 25.5 44.525 26.9513 44.75 27.75H31.25C31.5087 26.94 34.9738 25.5 38 25.5ZM38 12C35.5138 12 33.5 14.0138 33.5 16.5C33.5 18.9862 35.5138 21 38 21C40.4862 21 42.5 18.9862 42.5 16.5C42.5 14.0138 40.4862 12 38 12ZM38 23.25C34.9963 23.25 29 24.7575 29 27.75V30H47V27.75C47 24.7575 41.0037 23.25 38 23.25Z" fill="#0D0D0D"/>
<path d="M21.467 45V36.2727H24.5181C25.1261 36.2727 25.6275 36.3778 26.0224 36.5881C26.4173 36.7955 26.7113 37.0753 26.9045 37.4276C27.0977 37.777 27.1942 38.1648 27.1942 38.5909C27.1942 38.9659 27.1275 39.2756 26.994 39.5199C26.8633 39.7642 26.69 39.9574 26.4741 40.0994C26.261 40.2415 26.0295 40.3466 25.7795 40.4148V40.5C26.0465 40.517 26.315 40.6108 26.5849 40.7812C26.8548 40.9517 27.0806 41.196 27.2624 41.5142C27.4442 41.8324 27.5352 42.2216 27.5352 42.6818C27.5352 43.1193 27.4357 43.5128 27.2369 43.8622C27.038 44.2116 26.7241 44.4886 26.2951 44.6932C25.8661 44.8977 25.3079 45 24.6204 45H21.467ZM22.5238 44.0625H24.6204C25.3107 44.0625 25.8008 43.929 26.0906 43.6619C26.3832 43.392 26.5295 43.0653 26.5295 42.6818C26.5295 42.3864 26.4542 42.1136 26.3036 41.8636C26.1531 41.6108 25.9386 41.4091 25.6602 41.2585C25.3817 41.1051 25.0522 41.0284 24.6715 41.0284H22.5238V44.0625ZM22.5238 40.108H24.484C24.8022 40.108 25.0891 40.0455 25.3448 39.9205C25.6033 39.7955 25.8079 39.6193 25.9585 39.392C26.1119 39.1648 26.1886 38.8977 26.1886 38.5909C26.1886 38.2074 26.055 37.8821 25.788 37.6151C25.521 37.3452 25.0977 37.2102 24.5181 37.2102H22.5238V40.108ZM31.7944 45.1364C31.2035 45.1364 30.685 44.9957 30.239 44.7145C29.7958 44.4332 29.4492 44.0398 29.1992 43.5341C28.9521 43.0284 28.8285 42.4375 28.8285 41.7614C28.8285 41.0795 28.9521 40.4844 29.1992 39.9759C29.4492 39.4673 29.7958 39.0724 30.239 38.7912C30.685 38.5099 31.2035 38.3693 31.7944 38.3693C32.3853 38.3693 32.9023 38.5099 33.3455 38.7912C33.7915 39.0724 34.1381 39.4673 34.3853 39.9759C34.6353 40.4844 34.7603 41.0795 34.7603 41.7614C34.7603 42.4375 34.6353 43.0284 34.3853 43.5341C34.1381 44.0398 33.7915 44.4332 33.3455 44.7145C32.9023 44.9957 32.3853 45.1364 31.7944 45.1364ZM31.7944 44.233C32.2433 44.233 32.6126 44.1179 32.9023 43.8878C33.1921 43.6577 33.4066 43.3551 33.5458 42.9801C33.685 42.6051 33.7546 42.1989 33.7546 41.7614C33.7546 41.3239 33.685 40.9162 33.5458 40.5384C33.4066 40.1605 33.1921 39.8551 32.9023 39.6222C32.6126 39.3892 32.2433 39.2727 31.7944 39.2727C31.3455 39.2727 30.9762 39.3892 30.6864 39.6222C30.3967 39.8551 30.1822 40.1605 30.043 40.5384C29.9038 40.9162 29.8342 41.3239 29.8342 41.7614C29.8342 42.1989 29.9038 42.6051 30.043 42.9801C30.1822 43.3551 30.3967 43.6577 30.6864 43.8878C30.9762 44.1179 31.3455 44.233 31.7944 44.233ZM37.3011 43.517L40.4545 38.4545H41.6136V45H40.608V39.9375L37.4716 45H36.2955V38.4545H37.3011V43.517ZM39.7898 36.2727H40.7273C40.7273 36.733 40.5682 37.1094 40.25 37.402C39.9318 37.6946 39.5 37.8409 38.9545 37.8409C38.4176 37.8409 37.9901 37.6946 37.6719 37.402C37.3565 37.1094 37.1989 36.733 37.1989 36.2727H38.1364C38.1364 36.4943 38.1974 36.6889 38.3196 36.8565C38.4446 37.0241 38.6563 37.108 38.9545 37.108C39.2528 37.108 39.4659 37.0241 39.5938 36.8565C39.7244 36.6889 39.7898 36.4943 39.7898 36.2727ZM42.565 39.392V38.4545H47.8832V39.392H45.7354V45H44.7298V39.392H42.565ZM50.3558 43.517L53.5092 38.4545H54.6683V45H53.6626V39.9375L50.5263 45H49.3501V38.4545H50.3558V43.517Z" fill="#0D0D0D"/>
</svg>
