<svg width="77" height="48" viewBox="0 0 77 48" fill="none" xmlns="http://www.w3.org/2000/svg">
<path fill-rule="evenodd" clip-rule="evenodd" d="M47.3382 11.6099C46.3066 10.5779 44.9073 9.99805 43.4482 9.99805C41.989 9.99805 40.5897 10.5779 39.5582 11.6099L38.4982 12.6699L37.4382 11.6099C35.2898 9.46148 31.8066 9.46148 29.6582 11.6099C27.5098 13.7583 27.5098 17.2415 29.6582 19.3899L30.7182 20.4499L38.4982 28.2299L46.2782 20.4499L47.3382 19.3899C48.3702 18.3583 48.95 16.959 48.95 15.4999C48.95 14.0407 48.3702 12.6414 47.3382 11.6099Z" stroke="#0D0D0D" stroke-width="2" stroke-linecap="round" stroke-linejoin="round"/>
<path d="M2.26518 34.8182H3.47825V42.8324H3.57768L9.14586 34.8182H10.339V45H9.10609V37.0057H9.00666L3.45836 45H2.26518V34.8182ZM12.1698 43.0511H13.4227C13.4492 43.3958 13.605 43.6577 13.89 43.8366C14.1784 44.0156 14.5529 44.1051 15.0136 44.1051C15.4842 44.1051 15.8869 44.009 16.2217 43.8168C16.5564 43.6212 16.7238 43.3063 16.7238 42.8722C16.7238 42.617 16.6608 42.3949 16.5349 42.206C16.4089 42.0137 16.2316 41.8646 16.0029 41.7585C15.7742 41.6525 15.5041 41.5994 15.1926 41.5994H13.8801V40.5455H15.1926C15.6599 40.5455 16.0046 40.4394 16.2267 40.2273C16.452 40.0152 16.5647 39.75 16.5647 39.4318C16.5647 39.0904 16.4437 38.817 16.2018 38.6115C15.9598 38.4027 15.6168 38.2983 15.1727 38.2983C14.7252 38.2983 14.3524 38.3994 14.0541 38.6016C13.7558 38.8004 13.5983 39.0573 13.5818 39.3722H12.3488C12.3621 38.9612 12.488 38.5982 12.7267 38.2834C12.9653 37.9652 13.2901 37.7166 13.7011 37.5376C14.1121 37.3554 14.5827 37.2642 15.113 37.2642C15.6499 37.2642 16.1156 37.3587 16.51 37.5476C16.9078 37.7332 17.2143 37.9867 17.4298 38.3082C17.6485 38.6264 17.7579 38.9877 17.7579 39.392C17.7579 39.8229 17.6369 40.1709 17.395 40.4361C17.153 40.7012 16.8498 40.8902 16.4852 41.0028V41.0824C16.7735 41.1023 17.0238 41.1951 17.2359 41.3608C17.4513 41.5232 17.6187 41.737 17.738 42.0021C17.8573 42.264 17.917 42.554 17.917 42.8722C17.917 43.3362 17.7927 43.7405 17.5441 44.0852C17.2955 44.4266 16.9542 44.6918 16.52 44.8807C16.0858 45.0663 15.5903 45.1591 15.0335 45.1591C14.4932 45.1591 14.0093 45.0713 13.5818 44.8956C13.1542 44.7166 12.8145 44.4697 12.5626 44.1548C12.314 43.8366 12.1831 43.4688 12.1698 43.0511ZM25.2327 34.5L25.8293 35.2159C25.5973 35.4413 25.3288 35.5987 25.0239 35.6882C24.719 35.7777 24.3743 35.8324 23.9898 35.8523C23.6053 35.8722 23.1778 35.892 22.7071 35.9119C22.1768 35.9318 21.7377 36.0611 21.3896 36.2997C21.0416 36.5384 20.7732 36.883 20.5843 37.3338C20.3953 37.7846 20.2744 38.3381 20.2213 38.9943H20.3208C20.5793 38.517 20.9372 38.1657 21.3946 37.9403C21.852 37.715 22.3425 37.6023 22.8662 37.6023C23.4628 37.6023 23.9997 37.7415 24.477 38.0199C24.9543 38.2983 25.3321 38.7109 25.6105 39.2578C25.8889 39.8047 26.0281 40.4792 26.0281 41.2812C26.0281 42.08 25.8856 42.7694 25.6006 43.3494C25.3189 43.9295 24.9228 44.3769 24.4124 44.6918C23.9053 45.0033 23.3103 45.1591 22.6276 45.1591C21.9448 45.1591 21.3466 44.9983 20.8328 44.6768C20.3191 44.352 19.9197 43.8714 19.6347 43.2351C19.3496 42.5954 19.2071 41.8049 19.2071 40.8636V40.0483C19.2071 38.348 19.4955 37.0587 20.0722 36.1804C20.6522 35.3021 21.5239 34.848 22.6872 34.8182C23.0982 34.8049 23.4645 34.8016 23.786 34.8082C24.1075 34.8149 24.3875 34.8 24.6262 34.7635C24.8648 34.727 25.067 34.6392 25.2327 34.5ZM22.6276 44.1051C23.0883 44.1051 23.4843 43.9891 23.8158 43.7571C24.1505 43.5251 24.4074 43.1986 24.5864 42.7777C24.7654 42.3535 24.8548 41.8546 24.8548 41.2812C24.8548 40.7244 24.7637 40.2505 24.5814 39.8594C24.4024 39.4683 24.1456 39.17 23.8108 38.9645C23.4761 38.759 23.075 38.6562 22.6077 38.6562C22.2663 38.6562 21.9597 38.7143 21.6879 38.8303C21.4162 38.9463 21.1842 39.117 20.9919 39.3423C20.7997 39.5677 20.6505 39.8428 20.5445 40.1676C20.4417 40.4924 20.387 40.8636 20.3804 41.2812C20.3804 42.1364 20.5809 42.8208 20.982 43.3345C21.383 43.8482 21.9316 44.1051 22.6276 44.1051ZM27.8229 47.8636V37.3636H28.9564V38.5767H29.0956C29.1818 38.4441 29.3011 38.2751 29.4536 38.0696C29.6093 37.8608 29.8314 37.6752 30.1198 37.5128C30.4114 37.3471 30.8058 37.2642 31.303 37.2642C31.946 37.2642 32.5128 37.425 33.0033 37.7464C33.4938 38.0679 33.8766 38.5237 34.1517 39.1136C34.4268 39.7036 34.5644 40.3996 34.5644 41.2017C34.5644 42.0104 34.4268 42.7114 34.1517 43.3047C33.8766 43.8946 33.4955 44.352 33.0083 44.6768C32.521 44.9983 31.9593 45.1591 31.3229 45.1591C30.8324 45.1591 30.4396 45.0779 30.1446 44.9155C29.8496 44.7498 29.6226 44.5625 29.4635 44.3537C29.3044 44.1416 29.1818 43.9659 29.0956 43.8267H28.9962V47.8636H27.8229ZM28.9763 41.1818C28.9763 41.7585 29.0608 42.2673 29.2298 42.7081C29.3989 43.1456 29.6458 43.4886 29.9706 43.7372C30.2954 43.9825 30.6932 44.1051 31.1638 44.1051C31.6543 44.1051 32.0637 43.9759 32.3918 43.7173C32.7232 43.4555 32.9718 43.1042 33.1375 42.6634C33.3066 42.2192 33.3911 41.7254 33.3911 41.1818C33.3911 40.6449 33.3082 40.161 33.1425 39.7301C32.9801 39.2959 32.7332 38.9529 32.4017 38.701C32.0736 38.4458 31.661 38.3182 31.1638 38.3182C30.6865 38.3182 30.2855 38.4392 29.9607 38.6811C29.6359 38.9197 29.3906 39.2545 29.2249 39.6854C29.0592 40.1129 28.9763 40.6117 28.9763 41.1818ZM38.6013 45.179C38.1174 45.179 37.6782 45.0878 37.2838 44.9055C36.8894 44.7199 36.5762 44.4531 36.3442 44.1051C36.1122 43.7538 35.9962 43.3295 35.9962 42.8324C35.9962 42.3949 36.0824 42.0402 36.2547 41.7685C36.4271 41.4934 36.6574 41.2779 36.9458 41.1222C37.2341 40.9664 37.5523 40.8504 37.9003 40.7741C38.2516 40.6946 38.6046 40.6316 38.9593 40.5852C39.4233 40.5256 39.7994 40.4808 40.0878 40.451C40.3795 40.4179 40.5916 40.3632 40.7242 40.2869C40.8601 40.2107 40.928 40.0781 40.928 39.8892V39.8494C40.928 39.3589 40.7938 38.9777 40.5253 38.706C40.2602 38.4342 39.8575 38.2983 39.3172 38.2983C38.7571 38.2983 38.3179 38.4209 37.9997 38.6662C37.6816 38.9115 37.4578 39.1733 37.3286 39.4517L36.2149 39.054C36.4138 38.59 36.6789 38.2287 37.0104 37.9702C37.3451 37.7083 37.7097 37.526 38.1041 37.4233C38.5019 37.3172 38.893 37.2642 39.2774 37.2642C39.5227 37.2642 39.8044 37.294 40.1226 37.3537C40.4441 37.41 40.754 37.5277 41.0523 37.7067C41.3539 37.8857 41.6041 38.1558 41.803 38.517C42.0019 38.8783 42.1013 39.3622 42.1013 39.9688V45H40.928V43.9659H40.8683C40.7888 44.1316 40.6562 44.3089 40.4706 44.4979C40.285 44.6868 40.0381 44.8475 39.7298 44.9801C39.4216 45.1127 39.0454 45.179 38.6013 45.179ZM38.7803 44.125C39.2443 44.125 39.6354 44.0339 39.9536 43.8516C40.2751 43.6693 40.517 43.4339 40.6794 43.1456C40.8451 42.8572 40.928 42.554 40.928 42.2358V41.1619C40.8783 41.2216 40.7689 41.2763 40.5999 41.326C40.4342 41.3724 40.2419 41.4138 40.0232 41.4503C39.8077 41.4834 39.5973 41.5133 39.3918 41.5398C39.1896 41.563 39.0255 41.5829 38.8996 41.5994C38.5947 41.6392 38.3096 41.7038 38.0445 41.7933C37.7826 41.8795 37.5705 42.0104 37.4081 42.1861C37.249 42.3584 37.1695 42.5937 37.1695 42.892C37.1695 43.2997 37.3203 43.608 37.6219 43.8168C37.9268 44.0223 38.3129 44.125 38.7803 44.125ZM49.3536 40.6449V41.7386H45.1377V40.6449H49.3536ZM45.4161 37.3636V45H44.2428V37.3636H45.4161ZM50.2485 37.3636V45H49.0752V37.3636H50.2485ZM57.502 40.6449V41.7386H53.2861V40.6449H57.502ZM53.5645 37.3636V45H52.3912V37.3636H53.5645ZM58.3969 37.3636V45H57.2236V37.3636H58.3969ZM63.642 45.1591C62.9526 45.1591 62.3477 44.995 61.8273 44.6669C61.3103 44.3388 60.9059 43.8797 60.6143 43.2898C60.3259 42.6998 60.1817 42.0104 60.1817 41.2216C60.1817 40.4261 60.3259 39.7318 60.6143 39.1385C60.9059 38.5452 61.3103 38.0845 61.8273 37.7564C62.3477 37.4283 62.9526 37.2642 63.642 37.2642C64.3314 37.2642 64.9346 37.4283 65.4516 37.7564C65.972 38.0845 66.3763 38.5452 66.6647 39.1385C66.9564 39.7318 67.1022 40.4261 67.1022 41.2216C67.1022 42.0104 66.9564 42.6998 66.6647 43.2898C66.3763 43.8797 65.972 44.3388 65.4516 44.6669C64.9346 44.995 64.3314 45.1591 63.642 45.1591ZM63.642 44.1051C64.1656 44.1051 64.5965 43.9709 64.9346 43.7024C65.2726 43.4339 65.5229 43.081 65.6853 42.6435C65.8477 42.206 65.9289 41.732 65.9289 41.2216C65.9289 40.7112 65.8477 40.2356 65.6853 39.7947C65.5229 39.3539 65.2726 38.9976 64.9346 38.7259C64.5965 38.4541 64.1656 38.3182 63.642 38.3182C63.1183 38.3182 62.6874 38.4541 62.3493 38.7259C62.0113 38.9976 61.761 39.3539 61.5986 39.7947C61.4362 40.2356 61.355 40.7112 61.355 41.2216C61.355 41.732 61.4362 42.206 61.5986 42.6435C61.761 43.081 62.0113 43.4339 62.3493 43.7024C62.6874 43.9709 63.1183 44.1051 63.642 44.1051ZM72.0949 45.1591C71.3591 45.1591 70.7244 44.9967 70.1908 44.6719C69.6605 44.3438 69.2512 43.8864 68.9628 43.2997C68.6778 42.7098 68.5352 42.0237 68.5352 41.2415C68.5352 40.4593 68.6778 39.7699 68.9628 39.1733C69.2512 38.5734 69.6522 38.1061 70.1659 37.7713C70.683 37.4332 71.2862 37.2642 71.9756 37.2642C72.3733 37.2642 72.7661 37.3305 73.1539 37.4631C73.5416 37.5956 73.8946 37.8111 74.2128 38.1094C74.531 38.4044 74.7845 38.7955 74.9735 39.2827C75.1624 39.7699 75.2568 40.3698 75.2568 41.0824V41.5795H69.3705V40.5653H74.0637C74.0637 40.1345 73.9775 39.75 73.8051 39.4119C73.6361 39.0739 73.3941 38.8071 73.0793 38.6115C72.7677 38.416 72.3998 38.3182 71.9756 38.3182C71.5083 38.3182 71.1039 38.4342 70.7625 38.6662C70.4244 38.8949 70.1643 39.1932 69.982 39.5611C69.7997 39.929 69.7085 40.3234 69.7085 40.7443V41.4205C69.7085 41.9972 69.808 42.486 70.0068 42.8871C70.209 43.2848 70.4891 43.5881 70.847 43.7969C71.205 44.0024 71.6209 44.1051 72.0949 44.1051C72.4031 44.1051 72.6816 44.062 72.9301 43.9759C73.182 43.8864 73.3991 43.7538 73.5814 43.5781C73.7637 43.3991 73.9046 43.1771 74.004 42.9119L75.1375 43.2301C75.0182 43.6146 74.8177 43.9527 74.536 44.2443C74.2542 44.5327 73.9062 44.758 73.4919 44.9205C73.0776 45.0795 72.6119 45.1591 72.0949 45.1591Z" fill="black"/>
</svg>
