<svg width="76" height="48" viewBox="0 0 76 48" fill="none" xmlns="http://www.w3.org/2000/svg">
<path fill-rule="evenodd" clip-rule="evenodd" d="M31 31C32.1046 31 33 30.1046 33 29C33 27.8954 32.1046 27 31 27C29.8954 27 29 27.8954 29 29C29 30.1046 29.8954 31 31 31Z" stroke="#0D0D0D" stroke-width="2" stroke-linecap="round" stroke-linejoin="round"/>
<path fill-rule="evenodd" clip-rule="evenodd" d="M43 31C44.1046 31 45 30.1046 45 29C45 27.8954 44.1046 27 43 27C41.8954 27 41 27.8954 41 29C41 30.1046 41.8954 31 43 31Z" stroke="#0D0D0D" stroke-width="2" stroke-linecap="round" stroke-linejoin="round"/>
<path d="M28.67 14H46L44.32 22.39C44.1313 23.3402 43.2886 24.0186 42.32 24H31.75C30.7395 24.0086 29.8813 23.262 29.75 22.26L28.23 10.74C28.0996 9.7456 27.2529 9.00152 26.25 9H24" stroke="#0D0D0D" stroke-width="2" stroke-linecap="round" stroke-linejoin="round"/>
<path d="M13.2188 45L9.71875 40.3267H8.46591V45H7.23295V34.8182H8.46591V39.233H9.00284L13.0795 34.8182H14.5511L10.4347 39.2926L14.6903 45H13.2188ZM18.6664 45.1591C17.977 45.1591 17.3721 44.995 16.8517 44.6669C16.3347 44.3388 15.9303 43.8797 15.6387 43.2898C15.3503 42.6998 15.2061 42.0104 15.2061 41.2216C15.2061 40.4261 15.3503 39.7318 15.6387 39.1385C15.9303 38.5452 16.3347 38.0845 16.8517 37.7564C17.3721 37.4283 17.977 37.2642 18.6664 37.2642C19.3558 37.2642 19.959 37.4283 20.476 37.7564C20.9964 38.0845 21.4007 38.5452 21.6891 39.1385C21.9808 39.7318 22.1266 40.4261 22.1266 41.2216C22.1266 42.0104 21.9808 42.6998 21.6891 43.2898C21.4007 43.8797 20.9964 44.3388 20.476 44.6669C19.959 44.995 19.3558 45.1591 18.6664 45.1591ZM18.6664 44.1051C19.19 44.1051 19.6209 43.9709 19.959 43.7024C20.2971 43.4339 20.5473 43.081 20.7097 42.6435C20.8721 42.206 20.9533 41.732 20.9533 41.2216C20.9533 40.7112 20.8721 40.2356 20.7097 39.7947C20.5473 39.3539 20.2971 38.9976 19.959 38.7259C19.6209 38.4541 19.19 38.3182 18.6664 38.3182C18.1427 38.3182 17.7118 38.4541 17.3738 38.7259C17.0357 38.9976 16.7855 39.3539 16.623 39.7947C16.4606 40.2356 16.3794 40.7112 16.3794 41.2216C16.3794 41.732 16.4606 42.206 16.623 42.6435C16.7855 43.081 17.0357 43.4339 17.3738 43.7024C17.7118 43.9709 18.1427 44.1051 18.6664 44.1051ZM23.9176 47.8636V37.3636H25.0511V38.5767H25.1903C25.2765 38.4441 25.3958 38.2751 25.5483 38.0696C25.7041 37.8608 25.9261 37.6752 26.2145 37.5128C26.5062 37.3471 26.9006 37.2642 27.3977 37.2642C28.0407 37.2642 28.6075 37.425 29.098 37.7464C29.5885 38.0679 29.9714 38.5237 30.2464 39.1136C30.5215 39.7036 30.6591 40.3996 30.6591 41.2017C30.6591 42.0104 30.5215 42.7114 30.2464 43.3047C29.9714 43.8946 29.5902 44.352 29.103 44.6768C28.6158 44.9983 28.054 45.1591 27.4176 45.1591C26.9271 45.1591 26.5343 45.0779 26.2393 44.9155C25.9444 44.7498 25.7173 44.5625 25.5582 44.3537C25.3991 44.1416 25.2765 43.9659 25.1903 43.8267H25.0909V47.8636H23.9176ZM25.071 41.1818C25.071 41.7585 25.1555 42.2673 25.3246 42.7081C25.4936 43.1456 25.7405 43.4886 26.0653 43.7372C26.3902 43.9825 26.7879 44.1051 27.2585 44.1051C27.7491 44.1051 28.1584 43.9759 28.4865 43.7173C28.8179 43.4555 29.0665 43.1042 29.2322 42.6634C29.4013 42.2192 29.4858 41.7254 29.4858 41.1818C29.4858 40.6449 29.4029 40.161 29.2372 39.7301C29.0748 39.2959 28.8279 38.9529 28.4964 38.701C28.1683 38.4458 27.7557 38.3182 27.2585 38.3182C26.7813 38.3182 26.3802 38.4392 26.0554 38.6811C25.7306 38.9197 25.4853 39.2545 25.3196 39.6854C25.1539 40.1129 25.071 40.6117 25.071 41.1818ZM31.9716 43.0511H33.2244C33.2509 43.3958 33.4067 43.6577 33.6918 43.8366C33.9801 44.0156 34.3546 44.1051 34.8153 44.1051C35.286 44.1051 35.6887 44.009 36.0234 43.8168C36.3582 43.6212 36.5256 43.3063 36.5256 42.8722C36.5256 42.617 36.4626 42.3949 36.3366 42.206C36.2107 42.0137 36.0334 41.8646 35.8047 41.7585C35.576 41.6525 35.3059 41.5994 34.9943 41.5994H33.6818V40.5455H34.9943C35.4616 40.5455 35.8063 40.4394 36.0284 40.2273C36.2538 40.0152 36.3665 39.75 36.3665 39.4318C36.3665 39.0904 36.2455 38.817 36.0036 38.6115C35.7616 38.4027 35.4186 38.2983 34.9744 38.2983C34.527 38.2983 34.1541 38.3994 33.8558 38.6016C33.5575 38.8004 33.4001 39.0573 33.3835 39.3722H32.1506C32.1638 38.9612 32.2898 38.5982 32.5284 38.2834C32.767 37.9652 33.0919 37.7166 33.5028 37.5376C33.9138 37.3554 34.3845 37.2642 34.9148 37.2642C35.4517 37.2642 35.9174 37.3587 36.3118 37.5476C36.7095 37.7332 37.0161 37.9867 37.2315 38.3082C37.4503 38.6264 37.5597 38.9877 37.5597 39.392C37.5597 39.8229 37.4387 40.1709 37.1967 40.4361C36.9548 40.7012 36.6515 40.8902 36.2869 41.0028V41.0824C36.5753 41.1023 36.8255 41.1951 37.0376 41.3608C37.2531 41.5232 37.4205 41.737 37.5398 42.0021C37.6591 42.264 37.7188 42.554 37.7188 42.8722C37.7188 43.3362 37.5945 43.7405 37.3459 44.0852C37.0973 44.4266 36.7559 44.6918 36.3217 44.8807C35.8875 45.0663 35.392 45.1591 34.8352 45.1591C34.295 45.1591 33.8111 45.0713 33.3835 44.8956C32.956 44.7166 32.6162 44.4697 32.3643 44.1548C32.1158 43.8366 31.9848 43.4688 31.9716 43.0511ZM40.5401 43.2699L44.2191 37.3636H45.5714V45H44.3981V39.0938L40.739 45H39.3668V37.3636H40.5401V43.2699ZM52.8311 40.6449V41.7386H48.6152V40.6449H52.8311ZM48.8936 37.3636V45H47.7203V37.3636H48.8936ZM53.726 37.3636V45H52.5527V37.3636H53.726ZM58.1159 45.179C57.632 45.179 57.1929 45.0878 56.7985 44.9055C56.4041 44.7199 56.0908 44.4531 55.8588 44.1051C55.6268 43.7538 55.5108 43.3295 55.5108 42.8324C55.5108 42.3949 55.597 42.0402 55.7694 41.7685C55.9417 41.4934 56.1721 41.2779 56.4604 41.1222C56.7488 40.9664 57.0669 40.8504 57.415 40.7741C57.7663 40.6946 58.1193 40.6316 58.4739 40.5852C58.9379 40.5256 59.3141 40.4808 59.6025 40.451C59.8941 40.4179 60.1062 40.3632 60.2388 40.2869C60.3747 40.2107 60.4426 40.0781 60.4426 39.8892V39.8494C60.4426 39.3589 60.3084 38.9777 60.04 38.706C59.7748 38.4342 59.3721 38.2983 58.8319 38.2983C58.2717 38.2983 57.8326 38.4209 57.5144 38.6662C57.1962 38.9115 56.9725 39.1733 56.8432 39.4517L55.7296 39.054C55.9284 38.59 56.1936 38.2287 56.525 37.9702C56.8598 37.7083 57.2244 37.526 57.6188 37.4233C58.0165 37.3172 58.4076 37.2642 58.7921 37.2642C59.0373 37.2642 59.3191 37.294 59.6373 37.3537C59.9587 37.41 60.2686 37.5277 60.5669 37.7067C60.8685 37.8857 61.1188 38.1558 61.3176 38.517C61.5165 38.8783 61.6159 39.3622 61.6159 39.9688V45H60.4426V43.9659H60.383C60.3034 44.1316 60.1709 44.3089 59.9853 44.4979C59.7997 44.6868 59.5527 44.8475 59.2445 44.9801C58.9363 45.1127 58.5601 45.179 58.1159 45.179ZM58.2949 44.125C58.7589 44.125 59.15 44.0339 59.4682 43.8516C59.7897 43.6693 60.0317 43.4339 60.1941 43.1456C60.3598 42.8572 60.4426 42.554 60.4426 42.2358V41.1619C60.3929 41.2216 60.2836 41.2763 60.1145 41.326C59.9488 41.3724 59.7566 41.4138 59.5378 41.4503C59.3224 41.4834 59.1119 41.5133 58.9064 41.5398C58.7042 41.563 58.5402 41.5829 58.4142 41.5994C58.1093 41.6392 57.8243 41.7038 57.5591 41.7933C57.2973 41.8795 57.0852 42.0104 56.9228 42.1861C56.7637 42.3584 56.6841 42.5937 56.6841 42.892C56.6841 43.2997 56.8349 43.608 57.1365 43.8168C57.4415 44.0223 57.8276 44.125 58.2949 44.125Z" fill="#0D0D0D"/>
<rect x="39" width="30" height="19" rx="9.5" fill="#4D96FF"/>
<path d="M51.7015 5.27273V14H49.8564V7.02415H49.8052L47.8066 8.27699V6.64062L49.9672 5.27273H51.7015ZM56.9632 14.1193C56.361 14.1193 55.824 14.0085 55.3525 13.7869C54.8837 13.5653 54.5115 13.2599 54.236 12.8707C53.9604 12.4815 53.8169 12.0355 53.8056 11.5327H55.5953C55.6152 11.8707 55.7573 12.1449 56.0215 12.3551C56.2857 12.5653 56.5996 12.6705 56.9632 12.6705C57.253 12.6705 57.5087 12.6065 57.7303 12.4787C57.9547 12.348 58.1294 12.1676 58.2544 11.9375C58.3823 11.7045 58.4462 11.4375 58.4462 11.1364C58.4462 10.8295 58.3809 10.5597 58.2502 10.3267C58.1223 10.0937 57.9448 9.91193 57.7175 9.78125C57.4902 9.65057 57.2303 9.58381 56.9377 9.58097C56.682 9.58097 56.4334 9.63352 56.1919 9.73864C55.9533 9.84375 55.7672 9.98722 55.6337 10.169L53.9931 9.875L54.4064 5.27273H59.7417V6.78125H55.9277L55.7019 8.96733H55.753C55.9064 8.75142 56.138 8.57244 56.4476 8.4304C56.7573 8.28835 57.1039 8.21733 57.4874 8.21733C58.013 8.21733 58.4817 8.34091 58.8936 8.58807C59.3056 8.83523 59.6309 9.17472 59.8695 9.60653C60.1081 10.0355 60.226 10.5298 60.2232 11.0895C60.226 11.6776 60.0897 12.2003 59.8141 12.6577C59.5414 13.1122 59.1593 13.4702 58.6678 13.7315C58.1792 13.9901 57.611 14.1193 56.9632 14.1193Z" fill="white"/>
</svg>
