<svg width="120" height="25" viewBox="0 0 120 25" fill="none" xmlns="http://www.w3.org/2000/svg">
<path d="M12 17.919L18.18 21.649L16.54 14.619L22 9.88897L14.81 9.27897L12 2.64897L9.19 9.27897L2 9.88897L7.46 14.619L5.82 21.649L12 17.919Z" fill="#EED600"/>
<path d="M36 17.919L42.18 21.649L40.54 14.619L46 9.88897L38.81 9.27897L36 2.64897L33.19 9.27897L26 9.88897L31.46 14.619L29.82 21.649L36 17.919Z" fill="#EED600"/>
<path d="M60 17.919L66.18 21.649L64.54 14.619L70 9.88897L62.81 9.27897L60 2.64897L57.19 9.27897L50 9.88897L55.46 14.619L53.82 21.649L60 17.919Z" fill="#EED600"/>
<path d="M84 17.919L90.18 21.649L88.54 14.619L94 9.88897L86.81 9.27897L84 2.64897L81.19 9.27897L74 9.88897L79.46 14.619L77.82 21.649L84 17.919Z" fill="#EED600"/>
<path d="M108 17.919L114.18 21.649L112.54 14.619L118 9.88897L110.81 9.27897L108 2.64897L105.19 9.27897L98 9.88897L103.46 14.619L101.82 21.649L108 17.919Z" fill="#EED600"/>
</svg>
